REM MD5 42e7b6d08a6d0832ba0b0f07ba88558e
FILE "Mortal Kombat 3 (USA).bin" BINARY
  TRACK 01 MODE2/2352
    INDEX 01 00:00:00
  TRACK 02 AUDIO
    INDEX 00 04:10:55
    INDEX 01 04:12:55
  TRACK 03 AUDIO
    INDEX 00 04:17:55
    INDEX 01 04:19:55
  TRACK 04 AUDIO
    INDEX 00 05:17:66
    INDEX 01 05:19:66
  TRACK 05 AUDIO
    INDEX 00 06:26:38
    INDEX 01 06:28:38
  TRACK 06 AUDIO
    INDEX 00 07:45:39
    INDEX 01 07:47:39
  TRACK 07 AUDIO
    INDEX 00 07:52:39
    INDEX 01 07:54:39
  TRACK 08 AUDIO
    INDEX 00 09:41:46
    INDEX 01 09:43:46
  TRACK 09 AUDIO
    INDEX 00 10:58:20
    INDEX 01 11:00:20
  TRACK 10 AUDIO
    INDEX 00 11:11:16
    INDEX 01 11:13:16
  TRACK 11 AUDIO
    INDEX 00 11:18:16
    INDEX 01 11:20:16
  TRACK 12 AUDIO
    INDEX 00 11:25:16
    INDEX 01 11:27:16
  TRACK 13 AUDIO
    INDEX 00 11:41:57
    INDEX 01 11:43:57
  TRACK 14 AUDIO
    INDEX 00 11:48:57
    INDEX 01 11:50:57
  TRACK 15 AUDIO
    INDEX 00 11:55:57
    INDEX 01 11:57:57
  TRACK 16 AUDIO
    INDEX 00 12:02:57
    INDEX 01 12:04:57
  TRACK 17 AUDIO
    INDEX 00 12:09:57
    INDEX 01 12:11:57
  TRACK 18 AUDIO
    INDEX 00 13:58:63
    INDEX 01 14:00:63
  TRACK 19 AUDIO
    INDEX 00 16:06:08
    INDEX 01 16:08:08
  TRACK 20 AUDIO
    INDEX 00 18:33:31
    INDEX 01 18:35:31
  TRACK 21 AUDIO
    INDEX 00 20:27:08
    INDEX 01 20:29:08
  TRACK 22 AUDIO
    INDEX 00 22:32:09
    INDEX 01 22:34:09
  TRACK 23 AUDIO
    INDEX 00 24:16:60
    INDEX 01 24:18:60
  TRACK 24 AUDIO
    INDEX 00 26:06:56
    INDEX 01 26:08:56
  TRACK 25 AUDIO
    INDEX 00 27:46:63
    INDEX 01 27:48:63
  TRACK 26 AUDIO
    INDEX 00 29:37:58
    INDEX 01 29:39:58
  TRACK 27 AUDIO
    INDEX 00 31:24:37
    INDEX 01 31:26:37
  TRACK 28 AUDIO
    INDEX 00 33:12:12
    INDEX 01 33:14:12
  TRACK 29 AUDIO
    INDEX 00 34:57:43
    INDEX 01 34:59:43
  TRACK 30 AUDIO
    INDEX 00 35:04:43
    INDEX 01 35:06:43
  TRACK 31 AUDIO
    INDEX 00 37:46:43
    INDEX 01 37:48:43
  TRACK 32 AUDIO
    INDEX 00 40:28:43
    INDEX 01 40:30:43
  TRACK 33 AUDIO
    INDEX 00 40:35:43
    INDEX 01 40:37:43
  TRACK 34 AUDIO
    INDEX 00 40:42:43
    INDEX 01 40:44:43
  TRACK 35 AUDIO
    INDEX 00 40:49:43
    INDEX 01 40:51:43
  TRACK 36 AUDIO
    INDEX 00 40:56:43
    INDEX 01 40:58:43
  TRACK 37 AUDIO
    INDEX 00 41:03:43
    INDEX 01 41:05:43
  TRACK 38 AUDIO
    INDEX 00 41:10:43
    INDEX 01 41:12:43
  TRACK 39 AUDIO
    INDEX 00 41:17:43
    INDEX 01 41:19:43
  TRACK 40 AUDIO
    INDEX 00 41:24:43
    INDEX 01 41:26:43
  TRACK 41 AUDIO
    INDEX 00 41:31:43
    INDEX 01 41:33:43
  TRACK 42 AUDIO
    INDEX 00 41:38:43
    INDEX 01 41:40:43
  TRACK 43 AUDIO
    INDEX 00 41:45:43
    INDEX 01 41:47:43
  TRACK 44 AUDIO
    INDEX 00 41:52:43
    INDEX 01 41:54:43
  TRACK 45 AUDIO
    INDEX 00 41:59:43
    INDEX 01 42:01:43
  TRACK 46 AUDIO
    INDEX 00 42:06:43
    INDEX 01 42:08:43
  TRACK 47 AUDIO
    INDEX 00 42:13:43
    INDEX 01 42:15:43
  TRACK 48 AUDIO
    INDEX 00 42:20:43
    INDEX 01 42:22:43
  TRACK 49 AUDIO
    INDEX 00 42:27:43
    INDEX 01 42:29:43
  TRACK 50 AUDIO
    INDEX 00 42:34:43
    INDEX 01 42:36:43
  TRACK 51 AUDIO
    INDEX 00 42:41:43
    INDEX 01 42:43:43
  TRACK 52 AUDIO
    INDEX 00 42:48:43
    INDEX 01 42:50:43
  TRACK 53 AUDIO
    INDEX 00 42:55:43
    INDEX 01 42:57:43
  TRACK 54 AUDIO
    INDEX 00 43:02:43
    INDEX 01 43:04:43
  TRACK 55 AUDIO
    INDEX 00 43:09:43
    INDEX 01 43:11:43
  TRACK 56 AUDIO
    INDEX 00 43:16:43
    INDEX 01 43:18:43
  TRACK 57 AUDIO
    INDEX 00 43:23:43
    INDEX 01 43:25:43
  TRACK 58 AUDIO
    INDEX 00 43:30:43
    INDEX 01 43:32:43
  TRACK 59 AUDIO
    INDEX 00 43:37:43
    INDEX 01 43:39:43
  TRACK 60 AUDIO
    INDEX 00 43:44:43
    INDEX 01 43:46:43
  TRACK 61 AUDIO
    INDEX 00 43:51:43
    INDEX 01 43:53:43
  TRACK 62 AUDIO
    INDEX 00 43:58:43
    INDEX 01 44:00:43
REM LEADOUT 46:40:43
